<?xml version="1.0" encoding="UTF-8" standalone="no"?>
<svg
   xmlns:dc="http://purl.org/dc/elements/1.1/"
   xmlns:cc="http://creativecommons.org/ns#"
   xmlns:rdf="http://www.w3.org/1999/02/22-rdf-syntax-ns#"
   xmlns:svg="http://www.w3.org/2000/svg"
   xmlns="http://www.w3.org/2000/svg"
   xmlns:sodipodi="http://sodipodi.sourceforge.net/DTD/sodipodi-0.dtd"
   xmlns:inkscape="http://www.inkscape.org/namespaces/inkscape"
   version="1.1"
   id="Ebene_3"
   x="0px"
   y="0px"
   width="300"
   height="150"
   viewBox="-0.003 -0.001 300 150.00001"
   enable-background="new -0.003 -0.001 566.93 154.094"
   xml:space="preserve"
   sodipodi:docname="screenshots.svg"
   inkscape:version="1.0.2 (e86c870879, 2021-01-15, custom)"><metadata
   id="metadata37"><rdf:RDF><cc:Work
       rdf:about=""><dc:format>image/svg+xml</dc:format><dc:type
         rdf:resource="http://purl.org/dc/dcmitype/StillImage" /><dc:title></dc:title></cc:Work></rdf:RDF></metadata><defs
   id="defs35" /><sodipodi:namedview
   pagecolor="#ffffff"
   bordercolor="#666666"
   borderopacity="1"
   objecttolerance="10"
   gridtolerance="10"
   guidetolerance="10"
   inkscape:pageopacity="0"
   inkscape:pageshadow="2"
   inkscape:window-width="1241"
   inkscape:window-height="813"
   id="namedview33"
   showgrid="false"
   inkscape:zoom="1.6039711"
   inkscape:cx="144.76161"
   inkscape:cy="67.373318"
   inkscape:window-x="532"
   inkscape:window-y="115"
   inkscape:window-maximized="0"
   inkscape:current-layer="Ebene_3" />
<g
   id="g24"
   style="fill:#ffffff;fill-opacity:1"
   transform="matrix(0.57374964,0,0,0.57374964,-5.8042343,26.757189)">
	<path
   fill="#FFFFFF"
   d="m 22.19,184.546 c 0,1.719 0.423,3.313 1.267,4.79 0.845,1.472 1.954,2.76 3.328,3.864 1.375,1.101 2.949,1.959 4.724,2.576 1.775,0.614 3.593,0.923 5.454,0.923 0.573,0 1.16,-0.051 1.761,-0.149 0.601,-0.103 1.145,-0.28 1.631,-0.538 0.487,-0.258 0.888,-0.595 1.203,-1.008 0.315,-0.417 0.472,-0.938 0.472,-1.568 0,-1.202 -0.422,-2.391 -1.267,-3.564 -0.845,-1.173 -1.954,-2.34 -3.328,-3.501 -1.375,-1.157 -2.949,-2.319 -4.724,-3.477 -1.775,-1.161 -3.579,-2.313 -5.411,-3.458 -1.833,-1.145 -3.636,-2.297 -5.411,-3.458 -1.775,-1.157 -3.35,-2.318 -4.724,-3.477 -1.374,-1.161 -2.483,-2.335 -3.328,-3.521 -0.845,-1.19 -1.267,-2.386 -1.267,-3.587 0,-1.146 0.293,-2.214 0.88,-3.199 0.587,-0.99 1.367,-1.883 2.34,-2.685 0.973,-0.802 2.104,-1.518 3.393,-2.148 1.289,-0.629 2.634,-1.158 4.037,-1.588 1.403,-0.43 2.813,-0.753 4.23,-0.965 1.417,-0.217 2.771,-0.324 4.059,-0.324 0.945,0 1.982,0.021 3.113,0.066 1.131,0.041 2.19,0.171 3.178,0.384 0.987,0.217 1.811,0.538 2.469,0.968 0.658,0.429 0.987,1.045 0.987,1.847 0,0.258 -0.042,0.58 -0.129,0.965 -0.085,0.389 -0.329,1.024 -0.729,1.912 -0.401,0.83 -0.866,1.454 -1.396,1.866 -0.529,0.418 -1.21,0.625 -2.04,0.625 -1.173,0 -2.412,-0.138 -3.714,-0.407 -1.303,-0.274 -2.612,-0.409 -3.929,-0.409 -0.716,0 -1.439,0.037 -2.169,0.106 -0.73,0.073 -1.396,0.2 -1.997,0.389 -0.601,0.184 -1.088,0.458 -1.46,0.814 -0.373,0.359 -0.558,0.81 -0.558,1.354 0,0.543 0.394,1.158 1.181,1.846 0.788,0.688 1.833,1.446 3.135,2.276 1.303,0.83 2.785,1.738 4.445,2.729 1.661,0.984 3.356,2.044 5.088,3.178 1.732,1.128 3.429,2.331 5.089,3.607 1.661,1.271 3.142,2.617 4.444,4.037 1.303,1.414 2.348,2.911 3.135,4.486 0.788,1.574 1.182,3.206 1.182,4.896 0,2.062 -0.473,3.879 -1.417,5.454 -0.945,1.574 -2.162,2.891 -3.65,3.95 -1.488,1.06 -3.135,1.855 -4.938,2.383 -1.804,0.532 -3.564,0.796 -5.282,0.796 -1.747,0 -3.514,-0.207 -5.304,-0.625 -1.789,-0.412 -3.514,-1.002 -5.174,-1.759 -1.661,-0.76 -3.214,-1.676 -4.66,-2.747 -1.446,-1.076 -2.698,-2.278 -3.758,-3.607 -1.06,-1.333 -1.896,-2.771 -2.512,-4.317 -0.616,-1.546 -0.923,-3.163 -0.923,-4.853 0,-0.717 0.05,-1.439 0.15,-2.168 0.1,-0.732 0.279,-1.374 0.537,-1.935 0.258,-0.557 0.616,-1.015 1.074,-1.374 0.458,-0.355 1.045,-0.536 1.761,-0.536 0.229,0 0.487,0.021 0.773,0.065 0.286,0.041 0.787,0.179 1.503,0.407 0.83,0.258 1.567,0.664 2.211,1.225 0.644,0.556 0.965,1.28 0.965,2.168 z"
   id="path2"
   style="fill:#ffffff;fill-opacity:1" />
	<path
   fill="#FFFFFF"
   d="m 72.479,164.706 c -1.604,0 -3.085,0.38 -4.445,1.137 -1.359,0.761 -2.548,1.803 -3.564,3.138 -1.017,1.329 -1.811,2.897 -2.383,4.701 -0.572,1.804 -0.859,3.735 -0.859,5.797 0,2.118 0.479,4.073 1.438,5.861 0.959,1.791 2.291,3.35 3.994,4.683 1.704,1.329 3.708,2.368 6.012,3.112 2.304,0.744 4.817,1.117 7.537,1.117 1.976,0 3.843,-0.181 5.604,-0.537 1.761,-0.359 3.3,-0.838 4.617,-1.438 1.316,-0.602 2.361,-1.309 3.135,-2.127 0.773,-0.813 1.159,-1.682 1.159,-2.597 0,-0.716 -0.129,-1.309 -0.386,-1.783 -0.258,-0.471 -0.551,-0.9 -0.881,-1.289 -0.329,-0.385 -0.623,-0.772 -0.88,-1.157 -0.257,-0.389 -0.386,-0.881 -0.386,-1.483 0,-0.572 0.144,-1.116 0.43,-1.631 0.286,-0.516 0.68,-0.975 1.181,-1.374 0.501,-0.401 1.074,-0.716 1.718,-0.945 0.644,-0.229 1.31,-0.344 1.997,-0.344 0.83,0 1.61,0.215 2.34,0.644 0.73,0.431 1.36,1.023 1.89,1.784 0.529,0.756 0.944,1.645 1.245,2.663 0.301,1.013 0.451,2.096 0.451,3.24 0,2.319 -0.615,4.473 -1.847,6.464 -1.231,1.988 -2.934,3.7 -5.11,5.132 -2.176,1.432 -4.753,2.554 -7.73,3.372 -2.977,0.813 -6.212,1.223 -9.705,1.223 -3.865,0 -7.43,-0.523 -10.693,-1.566 -3.264,-1.047 -6.077,-2.499 -8.438,-4.36 -2.362,-1.86 -4.202,-4.065 -5.519,-6.613 -1.317,-2.548 -1.975,-5.339 -1.975,-8.374 0,-3.321 0.579,-6.456 1.739,-9.405 1.16,-2.948 2.742,-5.524 4.746,-7.729 2.004,-2.204 4.345,-3.951 7.021,-5.239 2.676,-1.288 5.533,-1.933 8.567,-1.933 1.346,0 2.583,0.149 3.714,0.452 1.131,0.298 2.111,0.722 2.942,1.266 0.83,0.544 1.481,1.181 1.954,1.913 0.473,0.727 0.708,1.522 0.708,2.382 0,0.687 -0.15,1.339 -0.45,1.952 -0.301,0.618 -0.694,1.162 -1.181,1.633 -0.487,0.475 -1.052,0.853 -1.696,1.139 -0.644,0.286 -1.324,0.43 -2.04,0.43 -0.744,0 -1.338,-0.172 -1.782,-0.516 -0.443,-0.344 -0.852,-0.722 -1.224,-1.14 -0.372,-0.412 -0.773,-0.793 -1.203,-1.137 -0.431,-0.346 -1.018,-0.518 -1.762,-0.518 z"
   id="path4"
   style="fill:#ffffff;fill-opacity:1" />
	<path
   fill="#FFFFFF"
   d="m 114.264,169.601 c -0.573,0.229 -1.131,0.343 -1.675,0.343 -1.375,0 -2.319,-0.815 -2.834,-2.447 -0.143,-0.43 -0.236,-0.787 -0.279,-1.073 -0.043,-0.286 -0.065,-0.545 -0.065,-0.773 0,-1.346 0.759,-2.348 2.276,-3.006 3.006,-1.203 6.069,-2.176 9.19,-2.92 3.121,-0.744 6.27,-1.117 9.448,-1.117 1.489,0 2.956,0.158 4.402,0.473 1.446,0.315 2.741,0.858 3.887,1.631 1.145,0.773 2.076,1.804 2.792,3.093 0.715,1.288 1.073,2.906 1.073,4.853 0,1.375 -0.279,2.691 -0.837,3.951 -0.559,1.26 -1.295,2.462 -2.212,3.607 -0.916,1.146 -1.961,2.232 -3.135,3.264 -1.173,1.03 -2.376,1.976 -3.607,2.834 -1.231,0.859 -2.448,1.641 -3.651,2.34 -1.202,0.703 -2.29,1.311 -3.264,1.826 -0.83,0.486 -1.246,0.987 -1.246,1.503 0,0.602 0.444,1.073 1.332,1.418 3.063,1.087 6.199,2.104 9.405,3.049 3.206,0.944 6.456,2.003 9.749,3.178 1.546,0.572 2.319,1.46 2.319,2.662 0,0.572 -0.165,1.153 -0.494,1.738 -0.33,0.589 -0.694,1.124 -1.096,1.611 -0.83,1.231 -1.861,1.847 -3.092,1.847 -0.429,0 -0.958,-0.086 -1.589,-0.258 -1.861,-0.715 -3.857,-1.46 -5.991,-2.232 -2.132,-0.773 -4.309,-1.54 -6.527,-2.297 -2.219,-0.761 -4.402,-1.489 -6.549,-2.192 -2.147,-0.699 -4.137,-1.338 -5.97,-1.91 -0.658,-0.172 -1.102,-0.257 -1.331,-0.257 -0.229,0 -0.408,0.049 -0.537,0.15 -0.129,0.099 -0.193,0.308 -0.193,0.622 0,0.086 0.014,0.192 0.043,0.323 0.029,0.127 0.043,0.264 0.043,0.407 0.086,0.429 0.193,0.996 0.322,1.694 0.129,0.704 0.258,1.426 0.386,2.171 0.129,0.744 0.236,1.453 0.322,2.124 0.086,0.675 0.128,1.226 0.128,1.654 0,1.604 -0.873,2.72 -2.619,3.35 l -1.933,0.602 c -0.287,0.086 -0.544,0.148 -0.773,0.193 -0.229,0.042 -0.473,0.064 -0.73,0.064 -1.574,0 -2.49,-0.974 -2.748,-2.921 -0.688,-5.21 -1.567,-10.35 -2.641,-15.416 -1.074,-5.068 -2.298,-10.122 -3.672,-15.16 -0.086,-0.286 -0.136,-0.537 -0.15,-0.75 -0.015,-0.217 -0.022,-0.409 -0.022,-0.581 0,-1.518 0.816,-2.548 2.448,-3.092 0.602,-0.2 1.095,-0.358 1.482,-0.473 0.386,-0.115 0.701,-0.207 0.944,-0.28 0.244,-0.07 0.43,-0.121 0.559,-0.149 0.129,-0.028 0.25,-0.043 0.365,-0.043 1.546,0 2.548,0.873 3.006,2.62 0.601,2.233 1.167,4.395 1.696,6.484 0.53,2.09 1.009,4.15 1.438,6.184 0.229,1.002 0.645,1.503 1.246,1.503 0.172,0 0.373,-0.034 0.601,-0.107 0.229,-0.07 0.501,-0.179 0.816,-0.322 0.916,-0.485 2.025,-1.088 3.328,-1.804 1.303,-0.715 2.662,-1.51 4.08,-2.382 1.417,-0.875 2.82,-1.798 4.208,-2.771 1.389,-0.973 2.634,-1.946 3.736,-2.92 1.102,-0.974 1.997,-1.932 2.684,-2.877 0.687,-0.945 1.031,-1.832 1.031,-2.662 0,-0.516 -0.079,-0.988 -0.236,-1.418 -0.158,-0.43 -0.451,-0.801 -0.881,-1.116 -0.429,-0.314 -1.009,-0.558 -1.739,-0.729 -0.73,-0.173 -1.653,-0.258 -2.77,-0.258 -1.088,0 -2.226,0.094 -3.415,0.277 -1.188,0.188 -2.369,0.438 -3.542,0.753 -1.173,0.315 -2.333,0.674 -3.479,1.073 -1.143,0.4 -2.231,0.815 -3.261,1.244 z"
   id="path6"
   style="fill:#ffffff;fill-opacity:1" />
	<path
   fill="#FFFFFF"
   d="m 151.454,191.589 c -0.086,0 -0.222,0.014 -0.408,0.043 -0.187,0.028 -0.386,0.058 -0.601,0.086 -0.215,0.028 -0.422,0.058 -0.623,0.086 -0.2,0.028 -0.357,0.043 -0.473,0.043 -0.802,0 -1.502,-0.335 -2.104,-1.011 -0.601,-0.67 -0.901,-1.566 -0.901,-2.683 0,-0.744 0.243,-1.46 0.73,-2.146 0.487,-0.688 1.245,-1.26 2.275,-1.719 0.315,-0.144 0.566,-0.307 0.751,-0.495 0.187,-0.184 0.279,-0.449 0.279,-0.793 0,-0.917 -0.021,-1.897 -0.064,-2.94 -0.042,-1.048 -0.107,-2.27 -0.193,-3.673 -0.028,-0.287 -0.121,-0.559 -0.279,-0.816 -0.157,-0.258 -0.329,-0.55 -0.515,-0.881 -0.186,-0.328 -0.35,-0.693 -0.494,-1.095 -0.143,-0.4 -0.214,-0.901 -0.214,-1.502 0,-0.545 0.079,-1.166 0.236,-1.87 0.157,-0.698 0.486,-1.357 0.987,-1.975 0.501,-0.614 1.203,-1.13 2.105,-1.546 0.901,-0.414 2.083,-0.622 3.542,-0.622 0.602,0 1.103,0.058 1.503,0.172 0.401,0.114 0.751,0.249 1.052,0.409 0.301,0.155 0.573,0.292 0.816,0.406 0.244,0.115 0.494,0.172 0.751,0.172 0.458,0 1.375,-0.086 2.749,-0.257 1.374,-0.173 3.028,-0.416 4.96,-0.73 1.933,-0.314 4.065,-0.674 6.399,-1.073 2.333,-0.401 4.702,-0.837 7.107,-1.312 2.405,-0.47 4.752,-0.951 7.042,-1.438 2.291,-0.487 4.366,-0.96 6.227,-1.417 0.572,-0.144 1.073,-0.215 1.503,-0.215 0.601,0 1.081,0.137 1.438,0.406 0.359,0.274 0.624,0.61 0.795,1.011 0.171,0.401 0.279,0.852 0.322,1.354 0.042,0.498 0.064,0.964 0.064,1.394 0,0.745 -0.25,1.44 -0.751,2.082 -0.501,0.646 -1.324,1.154 -2.469,1.525 -2.834,0.83 -5.691,1.555 -8.568,2.168 -2.877,0.618 -5.775,1.174 -8.695,1.677 -2.921,0.499 -5.855,0.951 -8.805,1.352 -2.948,0.401 -5.882,0.802 -8.803,1.203 -0.4,0.057 -0.701,0.207 -0.901,0.452 -0.201,0.24 -0.3,0.564 -0.3,0.965 v 1.761 c 0,0.486 0.014,0.987 0.042,1.503 0.029,0.516 0.093,0.988 0.193,1.417 0.1,0.43 0.235,0.778 0.408,1.054 0.172,0.27 0.401,0.406 0.688,0.406 0.686,0 1.753,-0.143 3.199,-0.43 1.446,-0.286 3.078,-0.636 4.896,-1.053 1.818,-0.413 3.723,-0.871 5.711,-1.374 1.99,-0.499 3.873,-0.957 5.647,-1.374 1.775,-0.413 3.335,-0.765 4.681,-1.051 1.347,-0.287 2.291,-0.43 2.834,-0.43 0.802,0 1.411,0.294 1.825,0.879 0.416,0.59 0.694,1.324 0.838,2.213 0,0.143 0.015,0.271 0.043,0.386 0.028,0.115 0.043,0.243 0.043,0.387 0,0.83 -0.251,1.596 -0.752,2.299 -0.501,0.7 -1.395,1.224 -2.684,1.566 -0.344,0.114 -1.031,0.295 -2.061,0.536 -1.031,0.245 -2.248,0.531 -3.65,0.858 -1.403,0.332 -2.921,0.682 -4.552,1.053 -1.632,0.373 -3.236,0.738 -4.81,1.095 -1.575,0.359 -3.042,0.703 -4.402,1.031 -1.36,0.331 -2.469,0.595 -3.328,0.795 -0.773,0.2 -1.239,0.357 -1.396,0.473 -0.158,0.114 -0.236,0.258 -0.236,0.429 0.057,0.631 0.379,1.217 0.967,1.761 0.586,0.544 1.331,1.045 2.232,1.504 0.902,0.458 1.918,0.872 3.049,1.245 1.132,0.372 2.305,0.681 3.522,0.922 1.217,0.245 2.412,0.438 3.586,0.581 1.173,0.143 2.262,0.214 3.263,0.214 0.43,0 1.045,0 1.847,0 0.802,0 1.682,-0.022 2.641,-0.063 0.959,-0.045 1.946,-0.108 2.962,-0.194 1.017,-0.086 1.933,-0.206 2.749,-0.366 0.816,-0.155 1.489,-0.355 2.019,-0.601 0.53,-0.241 0.794,-0.536 0.794,-0.88 0,-0.314 -0.108,-0.644 -0.322,-0.988 -0.215,-0.343 -0.323,-0.715 -0.323,-1.116 0,-0.572 0.158,-1.139 0.472,-1.695 0.315,-0.561 0.723,-1.06 1.224,-1.505 0.501,-0.441 1.074,-0.801 1.718,-1.072 0.644,-0.273 1.295,-0.408 1.954,-0.408 0.83,0 1.588,0.164 2.276,0.495 0.688,0.327 1.281,0.757 1.782,1.288 0.501,0.527 0.887,1.137 1.159,1.824 0.273,0.688 0.408,1.388 0.408,2.104 0,1.889 -0.694,3.521 -2.083,4.896 -1.389,1.375 -3.199,2.514 -5.432,3.412 -2.234,0.905 -4.753,1.575 -7.558,2.021 -2.806,0.441 -5.626,0.665 -8.46,0.665 -3.321,0 -6.356,-0.224 -9.104,-0.665 -2.748,-0.446 -5.21,-1.153 -7.386,-2.127 -2.177,-0.974 -4.052,-2.241 -5.626,-3.8 -1.575,-1.563 -2.863,-3.458 -3.865,-5.691 -0.341,-0.657 -0.714,-0.987 -1.114,-0.987 z"
   id="path8"
   style="fill:#ffffff;fill-opacity:1" />
	<path
   fill="#FFFFFF"
   d="m 206.25,191.589 c -0.085,0 -0.222,0.014 -0.407,0.043 -0.187,0.028 -0.387,0.058 -0.602,0.086 -0.215,0.028 -0.421,0.058 -0.622,0.086 -0.201,0.028 -0.358,0.043 -0.473,0.043 -0.801,0 -1.503,-0.336 -2.104,-1.011 -0.601,-0.67 -0.902,-1.566 -0.902,-2.683 0,-0.744 0.243,-1.46 0.73,-2.146 0.487,-0.688 1.246,-1.26 2.276,-1.719 0.315,-0.144 0.565,-0.307 0.751,-0.495 0.187,-0.184 0.279,-0.449 0.279,-0.793 0,-0.917 -0.021,-1.897 -0.064,-2.94 -0.043,-1.048 -0.108,-2.27 -0.194,-3.673 -0.028,-0.287 -0.121,-0.559 -0.279,-0.816 -0.158,-0.258 -0.329,-0.55 -0.516,-0.881 -0.186,-0.328 -0.35,-0.693 -0.494,-1.095 -0.144,-0.4 -0.215,-0.901 -0.215,-1.502 0,-0.545 0.079,-1.166 0.236,-1.87 0.158,-0.698 0.487,-1.357 0.988,-1.975 0.501,-0.614 1.203,-1.13 2.104,-1.546 0.902,-0.414 2.083,-0.622 3.543,-0.622 0.601,0 1.102,0.058 1.503,0.172 0.4,0.114 0.751,0.249 1.052,0.409 0.3,0.155 0.572,0.292 0.815,0.406 0.244,0.115 0.494,0.172 0.752,0.172 0.458,0 1.374,-0.086 2.749,-0.257 1.374,-0.173 3.027,-0.416 4.96,-0.73 1.932,-0.314 4.065,-0.674 6.399,-1.073 2.333,-0.401 4.702,-0.837 7.106,-1.312 2.405,-0.47 4.753,-0.951 7.042,-1.438 2.291,-0.487 4.366,-0.96 6.228,-1.417 0.572,-0.144 1.073,-0.215 1.502,-0.215 0.602,0 1.082,0.137 1.439,0.406 0.357,0.274 0.622,0.61 0.794,1.011 0.172,0.401 0.279,0.852 0.322,1.354 0.043,0.498 0.065,0.964 0.065,1.394 0,0.745 -0.25,1.44 -0.751,2.082 -0.501,0.646 -1.324,1.154 -2.47,1.525 -2.834,0.83 -5.69,1.555 -8.567,2.168 -2.877,0.618 -5.776,1.174 -8.696,1.677 -2.92,0.499 -5.855,0.951 -8.804,1.352 -2.948,0.401 -5.883,0.802 -8.803,1.203 -0.401,0.057 -0.702,0.207 -0.902,0.452 -0.2,0.24 -0.3,0.564 -0.3,0.965 v 1.761 c 0,0.486 0.014,0.987 0.042,1.503 0.029,0.516 0.094,0.988 0.194,1.417 0.1,0.43 0.236,0.778 0.408,1.054 0.171,0.27 0.4,0.406 0.687,0.406 0.688,0 1.753,-0.143 3.2,-0.43 1.445,-0.286 3.078,-0.636 4.896,-1.053 1.818,-0.413 3.721,-0.871 5.711,-1.374 1.99,-0.499 3.872,-0.957 5.647,-1.374 1.775,-0.413 3.335,-0.765 4.681,-1.051 1.345,-0.287 2.29,-0.43 2.834,-0.43 0.802,0 1.41,0.294 1.825,0.879 0.416,0.59 0.694,1.324 0.837,2.213 0,0.143 0.015,0.271 0.043,0.386 0.03,0.115 0.044,0.243 0.044,0.387 0,0.83 -0.25,1.596 -0.752,2.299 -0.501,0.7 -1.396,1.224 -2.685,1.566 -0.343,0.114 -1.03,0.295 -2.061,0.536 -1.031,0.245 -2.247,0.531 -3.65,0.858 -1.402,0.332 -2.92,0.682 -4.551,1.053 -1.633,0.373 -3.236,0.738 -4.81,1.095 -1.575,0.359 -3.042,0.703 -4.402,1.031 -1.36,0.331 -2.47,0.595 -3.328,0.795 -0.773,0.2 -1.238,0.357 -1.396,0.473 -0.157,0.114 -0.236,0.258 -0.236,0.429 0.058,0.631 0.38,1.217 0.967,1.761 0.587,0.544 1.331,1.045 2.233,1.504 0.901,0.458 1.917,0.872 3.049,1.245 1.13,0.372 2.305,0.681 3.521,0.922 1.217,0.245 2.413,0.438 3.586,0.581 1.174,0.143 2.262,0.214 3.264,0.214 0.43,0 1.045,0 1.847,0 0.801,0 1.682,-0.022 2.641,-0.063 0.959,-0.045 1.947,-0.108 2.964,-0.194 1.016,-0.086 1.932,-0.206 2.749,-0.366 0.816,-0.155 1.488,-0.355 2.018,-0.601 0.53,-0.241 0.794,-0.536 0.794,-0.88 0,-0.314 -0.107,-0.644 -0.322,-0.988 -0.215,-0.343 -0.322,-0.715 -0.322,-1.116 0,-0.572 0.158,-1.139 0.473,-1.695 0.314,-0.561 0.723,-1.06 1.224,-1.505 0.5,-0.441 1.073,-0.801 1.717,-1.072 0.645,-0.273 1.295,-0.408 1.955,-0.408 0.83,0 1.589,0.164 2.276,0.495 0.686,0.327 1.281,0.757 1.782,1.288 0.5,0.527 0.887,1.137 1.159,1.824 0.272,0.687 0.409,1.388 0.409,2.104 0,1.889 -0.695,3.521 -2.083,4.896 -1.389,1.374 -3.2,2.514 -5.433,3.412 -2.232,0.905 -4.752,1.575 -7.558,2.021 -2.806,0.441 -5.626,0.665 -8.46,0.665 -3.321,0 -6.355,-0.224 -9.104,-0.665 -2.749,-0.446 -5.21,-1.153 -7.387,-2.127 -2.175,-0.974 -4.05,-2.241 -5.625,-3.8 -1.576,-1.563 -2.864,-3.458 -3.865,-5.691 -0.344,-0.657 -0.716,-0.987 -1.117,-0.987 z"
   id="path10"
   style="fill:#ffffff;fill-opacity:1" />
	<path
   fill="#FFFFFF"
   d="m 267.532,180.68 c 0,1.203 0.057,2.447 0.172,3.736 0.114,1.288 0.25,2.576 0.408,3.864 0.158,1.289 0.293,2.583 0.408,3.888 0.114,1.302 0.171,2.583 0.171,3.843 0,1.403 -0.486,2.542 -1.459,3.414 -0.974,0.875 -2.276,1.311 -3.908,1.311 -0.801,0 -1.553,-0.243 -2.255,-0.73 -0.702,-0.486 -1.095,-1.26 -1.181,-2.318 -0.143,-1.346 -0.279,-2.855 -0.407,-4.532 -0.129,-1.673 -0.244,-3.407 -0.344,-5.194 -0.1,-1.791 -0.193,-3.595 -0.279,-5.411 -0.085,-1.82 -0.157,-3.566 -0.215,-5.239 -0.057,-1.677 -0.1,-3.223 -0.128,-4.638 -0.028,-1.42 -0.042,-2.613 -0.042,-3.587 0,-0.858 0.057,-1.675 0.171,-2.448 0.115,-0.773 0.358,-1.445 0.73,-2.018 0.373,-0.573 0.881,-1.03 1.525,-1.375 0.645,-0.343 1.51,-0.516 2.598,-0.516 0.83,0 1.761,0.295 2.792,0.88 1.031,0.589 2.14,1.383 3.328,2.385 1.188,1.002 2.456,2.155 3.801,3.455 1.346,1.305 2.733,2.672 4.166,4.103 1.431,1.432 2.899,2.884 4.4,4.36 1.505,1.473 3.028,2.869 4.575,4.186 0.686,0.602 1.465,1.303 2.341,2.105 0.871,0.801 1.775,1.56 2.703,2.275 0.933,0.716 1.861,1.323 2.794,1.826 0.929,0.498 1.823,0.75 2.684,0.75 0.801,0 1.324,-0.35 1.566,-1.053 0.245,-0.699 0.365,-1.824 0.365,-3.37 0,-1.145 -0.092,-2.563 -0.28,-4.251 -0.185,-1.689 -0.45,-3.493 -0.793,-5.411 -0.344,-1.919 -0.773,-3.843 -1.288,-5.777 -0.516,-1.931 -1.103,-3.699 -1.762,-5.303 -0.144,-0.344 -0.279,-0.681 -0.407,-1.008 -0.13,-0.331 -0.193,-0.695 -0.193,-1.096 0,-0.659 0.215,-1.246 0.644,-1.761 0.43,-0.516 0.945,-0.945 1.546,-1.289 0.603,-0.344 1.231,-0.607 1.891,-0.795 0.658,-0.185 1.201,-0.278 1.632,-0.278 0.944,0 1.789,0.507 2.533,1.525 0.745,1.014 1.396,2.331 1.952,3.951 0.561,1.615 1.025,3.435 1.397,5.451 0.372,2.021 0.681,4.046 0.922,6.078 0.245,2.032 0.418,3.971 0.516,5.819 0.103,1.845 0.151,3.385 0.151,4.616 0,2.318 -0.094,4.357 -0.277,6.12 -0.188,1.76 -0.573,3.241 -1.162,4.444 -0.585,1.202 -1.438,2.112 -2.555,2.726 -1.116,0.617 -2.605,0.924 -4.466,0.924 -1.489,0 -3.049,-0.307 -4.681,-0.924 -1.632,-0.613 -3.284,-1.443 -4.961,-2.491 -1.674,-1.042 -3.362,-2.239 -5.067,-3.585 -1.702,-1.345 -3.37,-2.748 -5.002,-4.208 -1.633,-1.46 -3.215,-2.921 -4.745,-4.38 -1.534,-1.461 -2.957,-2.82 -4.273,-4.08 -0.545,-0.544 -1.045,-0.815 -1.503,-0.815 -0.401,0 -0.709,0.165 -0.924,0.492 -0.218,0.332 -0.325,0.782 -0.325,1.354 z"
   id="path12"
   style="fill:#ffffff;fill-opacity:1" />
	<path
   fill="#FFFFFF"
   d="m 323.747,184.546 c 0,1.718 0.423,3.313 1.266,4.79 0.847,1.472 1.955,2.76 3.329,3.864 1.374,1.101 2.948,1.959 4.724,2.576 1.775,0.614 3.593,0.923 5.454,0.923 0.573,0 1.16,-0.051 1.761,-0.149 0.601,-0.103 1.146,-0.28 1.632,-0.538 0.486,-0.258 0.888,-0.595 1.202,-1.008 0.314,-0.417 0.473,-0.938 0.473,-1.568 0,-1.202 -0.424,-2.391 -1.266,-3.564 -0.847,-1.174 -1.955,-2.34 -3.329,-3.501 -1.374,-1.157 -2.949,-2.319 -4.724,-3.477 -1.775,-1.161 -3.579,-2.313 -5.411,-3.458 -1.832,-1.145 -3.636,-2.297 -5.411,-3.458 -1.775,-1.157 -3.35,-2.318 -4.724,-3.477 -1.375,-1.161 -2.483,-2.335 -3.329,-3.521 -0.844,-1.191 -1.266,-2.386 -1.266,-3.587 0,-1.146 0.292,-2.214 0.881,-3.199 0.584,-0.99 1.365,-1.883 2.339,-2.685 0.974,-0.802 2.104,-1.518 3.393,-2.148 1.288,-0.629 2.635,-1.158 4.037,-1.589 1.402,-0.429 2.812,-0.752 4.23,-0.964 1.416,-0.217 2.77,-0.324 4.058,-0.324 0.945,0 1.984,0.021 3.112,0.066 1.134,0.041 2.192,0.171 3.179,0.384 0.989,0.217 1.812,0.538 2.47,0.968 0.659,0.429 0.988,1.045 0.988,1.847 0,0.258 -0.043,0.58 -0.13,0.965 -0.085,0.389 -0.329,1.024 -0.729,1.912 -0.4,0.83 -0.865,1.454 -1.396,1.866 -0.528,0.418 -1.208,0.625 -2.039,0.625 -1.174,0 -2.411,-0.138 -3.716,-0.407 -1.301,-0.274 -2.611,-0.409 -3.928,-0.409 -0.716,0 -1.438,0.037 -2.171,0.106 -0.728,0.073 -1.394,0.2 -1.996,0.389 -0.601,0.184 -1.087,0.458 -1.459,0.813 -0.373,0.36 -0.559,0.811 -0.559,1.354 0,0.544 0.395,1.159 1.18,1.847 0.789,0.688 1.832,1.446 3.137,2.276 1.301,0.83 2.783,1.738 4.444,2.729 1.66,0.984 3.356,2.044 5.09,3.178 1.73,1.128 3.428,2.331 5.088,3.607 1.661,1.271 3.141,2.617 4.445,4.037 1.301,1.414 2.348,2.911 3.134,4.486 0.789,1.574 1.182,3.206 1.182,4.896 0,2.062 -0.473,3.879 -1.417,5.454 -0.945,1.574 -2.162,2.891 -3.651,3.95 -1.487,1.059 -3.135,1.855 -4.938,2.383 -1.803,0.532 -3.564,0.796 -5.281,0.796 -1.746,0 -3.514,-0.207 -5.305,-0.625 -1.788,-0.412 -3.513,-1.002 -5.174,-1.759 -1.66,-0.76 -3.215,-1.676 -4.658,-2.747 -1.448,-1.076 -2.699,-2.278 -3.759,-3.607 -1.06,-1.333 -1.898,-2.771 -2.511,-4.317 -0.618,-1.546 -0.925,-3.163 -0.925,-4.853 0,-0.717 0.049,-1.439 0.151,-2.168 0.098,-0.732 0.278,-1.374 0.536,-1.935 0.257,-0.557 0.614,-1.015 1.073,-1.374 0.458,-0.355 1.045,-0.536 1.761,-0.536 0.229,0 0.486,0.021 0.773,0.065 0.286,0.041 0.787,0.179 1.503,0.407 0.83,0.258 1.568,0.664 2.21,1.225 0.645,0.556 0.967,1.28 0.967,2.168 z"
   id="path14"
   style="fill:#ffffff;fill-opacity:1" />
	<path
   fill="#FFFFFF"
   d="m 382.667,169.601 c 0,-0.314 -0.072,-0.787 -0.215,-1.418 -0.144,-0.629 -0.314,-1.352 -0.516,-2.169 -0.2,-0.813 -0.43,-1.689 -0.688,-2.617 -0.258,-0.934 -0.486,-1.841 -0.688,-2.729 -0.199,-0.888 -0.371,-1.718 -0.516,-2.49 -0.143,-0.773 -0.213,-1.418 -0.213,-1.934 0,-0.657 0.185,-1.196 0.558,-1.608 0.372,-0.418 0.845,-0.738 1.417,-0.968 0.572,-0.23 1.188,-0.386 1.846,-0.473 0.659,-0.086 1.289,-0.128 1.891,-0.128 0.744,0 1.468,0.206 2.167,0.623 0.704,0.413 1.183,1.151 1.44,2.211 0.314,1.116 0.58,2.238 0.793,3.372 0.217,1.128 0.409,2.233 0.581,3.305 0.172,1.075 0.335,2.112 0.495,3.114 0.155,1.002 0.32,1.933 0.492,2.792 0.173,0.687 0.395,1.23 0.664,1.632 0.275,0.399 0.603,0.707 0.99,0.924 0.385,0.212 0.802,0.35 1.243,0.407 0.446,0.057 0.925,0.085 1.44,0.085 0.572,0 1.188,-0.057 1.847,-0.171 0.658,-0.115 1.303,-0.172 1.932,-0.172 0.401,0 0.794,0.063 1.183,0.194 0.384,0.126 0.736,0.355 1.051,0.688 0.314,0.327 0.564,0.779 0.753,1.352 0.185,0.572 0.278,1.303 0.278,2.189 0,0.744 -0.144,1.367 -0.43,1.87 -0.287,0.498 -0.83,0.836 -1.632,1.007 l -1.546,0.345 c -0.487,0.085 -0.938,0.148 -1.354,0.194 -0.414,0.041 -0.938,0.092 -1.566,0.148 -1.346,0.144 -2.019,0.73 -2.019,1.761 0,0.086 0.057,0.473 0.172,1.159 0.114,0.688 0.264,1.54 0.451,2.555 0.185,1.018 0.394,2.136 0.622,3.35 0.229,1.219 0.449,2.385 0.666,3.501 0.213,1.116 0.407,2.11 0.579,2.985 0.172,0.872 0.301,1.495 0.387,1.867 0.144,0.63 0.258,1.117 0.343,1.46 0.087,0.344 0.13,0.816 0.13,1.418 0,0.458 -0.13,0.907 -0.388,1.354 -0.257,0.441 -0.637,0.836 -1.136,1.18 -0.504,0.344 -1.11,0.624 -1.826,0.837 -0.716,0.217 -1.532,0.322 -2.448,0.322 -1.002,0 -1.726,-0.307 -2.168,-0.924 -0.445,-0.614 -0.752,-1.322 -0.925,-2.125 -0.371,-1.488 -0.723,-3.02 -1.051,-4.595 -0.331,-1.575 -0.646,-3.136 -0.944,-4.682 -0.303,-1.546 -0.589,-3.057 -0.859,-4.529 -0.273,-1.477 -0.523,-2.885 -0.752,-4.231 -0.143,-0.629 -0.4,-1.094 -0.773,-1.396 -0.372,-0.298 -0.845,-0.45 -1.417,-0.45 -1.947,0 -3.899,0.066 -5.863,0.193 -1.958,0.13 -3.885,0.237 -5.774,0.322 -0.659,0.058 -1.174,0.272 -1.546,0.645 -0.373,0.372 -0.558,0.858 -0.558,1.46 0,1.346 0.014,2.678 0.042,3.994 0.029,1.316 0.043,2.662 0.043,4.037 0,1.574 -0.022,3.191 -0.063,4.852 -0.045,1.661 -0.109,3.265 -0.195,4.811 -0.057,0.572 -0.223,1.045 -0.492,1.418 -0.274,0.371 -0.617,0.672 -1.031,0.9 -0.417,0.229 -0.887,0.388 -1.419,0.473 -0.528,0.086 -1.065,0.129 -1.609,0.129 -1.346,0 -2.391,-0.223 -3.135,-0.664 -0.745,-0.446 -1.116,-1.197 -1.116,-2.256 0,-1.604 0.042,-3.278 0.128,-5.024 0.087,-1.746 0.129,-3.507 0.129,-5.282 0,-1.203 -0.014,-2.37 -0.042,-3.5 -0.03,-1.132 -0.044,-2.297 -0.044,-3.5 0,-0.544 -0.122,-0.953 -0.363,-1.223 -0.246,-0.274 -0.538,-0.495 -0.882,-0.666 -0.344,-0.173 -0.729,-0.337 -1.159,-0.495 -0.43,-0.156 -0.816,-0.394 -1.159,-0.708 -0.345,-0.314 -0.637,-0.773 -0.882,-1.374 -0.242,-0.602 -0.364,-1.432 -0.364,-2.491 0,-0.572 0.106,-1.022 0.323,-1.354 0.213,-0.328 0.486,-0.594 0.813,-0.793 0.331,-0.201 0.682,-0.365 1.054,-0.495 0.372,-0.128 0.722,-0.292 1.053,-0.493 0.328,-0.2 0.602,-0.452 0.813,-0.751 0.217,-0.302 0.324,-0.738 0.324,-1.311 0,-0.344 -0.015,-0.75 -0.043,-1.225 -0.028,-0.471 -0.058,-0.923 -0.087,-1.352 -0.028,-0.43 -0.057,-0.808 -0.085,-1.14 -0.028,-0.327 -0.043,-0.55 -0.043,-0.664 0,-0.974 0.135,-1.753 0.408,-2.342 0.271,-0.585 0.608,-1.03 1.009,-1.329 0.4,-0.304 0.854,-0.503 1.353,-0.602 0.502,-0.102 0.98,-0.15 1.438,-0.15 1.719,0 2.912,0.322 3.587,0.964 0.671,0.646 1.037,1.584 1.094,2.814 l 0.173,4.51 c 0.057,0.686 0.243,1.207 0.558,1.568 0.314,0.355 0.83,0.535 1.546,0.535 l 9.749,-0.343 c 0.83,-0.059 1.367,-0.286 1.608,-0.688 0.246,-0.399 0.368,-1 0.368,-1.802 z"
   id="path16"
   style="fill:#ffffff;fill-opacity:1" />
	<path
   fill="#FFFFFF"
   d="m 426.426,207.521 c -3.121,0 -5.992,-0.53 -8.609,-1.589 -2.621,-1.06 -4.875,-2.54 -6.765,-4.445 -1.89,-1.903 -3.363,-4.173 -4.424,-6.807 -1.06,-2.634 -1.589,-5.539 -1.589,-8.718 0,-1.717 0.151,-3.372 0.45,-4.959 0.303,-1.591 0.71,-3.071 1.226,-4.445 0.229,-0.544 0.343,-0.931 0.343,-1.16 0,-0.286 -0.071,-0.559 -0.215,-0.815 -0.143,-0.258 -0.301,-0.53 -0.472,-0.816 -0.172,-0.286 -0.33,-0.586 -0.473,-0.901 -0.144,-0.315 -0.215,-0.673 -0.215,-1.074 0,-1.202 0.688,-2.382 2.062,-3.543 1.374,-1.158 3.191,-2.188 5.454,-3.092 2.262,-0.9 4.824,-1.633 7.687,-2.189 2.863,-0.56 5.798,-0.838 8.804,-0.838 3.693,0 7.022,0.473 9.984,1.417 2.964,0.945 5.484,2.296 7.558,4.06 2.077,1.759 3.672,3.899 4.79,6.419 1.116,2.52 1.674,5.354 1.674,8.503 0,3.521 -0.701,6.809 -2.104,9.854 -1.402,3.052 -3.329,5.691 -5.774,7.925 -2.45,2.233 -5.333,3.994 -8.654,5.282 -3.323,1.288 -6.902,1.931 -10.738,1.931 z m 18.639,-23.318 c 0,-2.233 -0.388,-4.238 -1.16,-6.014 -0.773,-1.774 -1.89,-3.271 -3.35,-4.485 -1.461,-1.22 -3.258,-2.147 -5.389,-2.794 -2.135,-0.642 -4.546,-0.966 -7.237,-0.966 -4.724,0 -8.28,1.195 -10.672,3.587 -2.39,2.389 -3.585,5.947 -3.585,10.672 0,2.289 0.357,4.389 1.073,6.29 0.716,1.905 1.718,3.538 3.006,4.896 1.289,1.361 2.826,2.421 4.618,3.178 1.786,0.761 3.756,1.14 5.902,1.14 2.463,0 4.725,-0.379 6.786,-1.14 2.062,-0.757 3.83,-1.824 5.302,-3.198 1.478,-1.374 2.629,-3.015 3.459,-4.916 0.831,-1.907 1.247,-3.989 1.247,-6.25 z"
   id="path18"
   style="fill:#ffffff;fill-opacity:1" />
	<path
   fill="#FFFFFF"
   d="m 466.622,166.467 c -0.229,0 -0.666,0.051 -1.309,0.148 -0.646,0.103 -1.396,0.223 -2.256,0.367 -0.858,0.143 -1.76,0.309 -2.705,0.492 -0.944,0.188 -1.832,0.352 -2.662,0.495 -0.831,0.143 -1.554,0.266 -2.168,0.363 -0.617,0.103 -1.024,0.152 -1.226,0.152 -1.917,0 -2.877,-1.002 -2.877,-3.007 0,-0.544 0.049,-1.079 0.152,-1.611 0.098,-0.527 0.277,-1.014 0.535,-1.46 0.258,-0.442 0.601,-0.822 1.031,-1.137 0.43,-0.315 0.974,-0.529 1.631,-0.645 3.35,-0.516 6.686,-1.06 10.007,-1.632 3.32,-0.572 6.671,-1.174 10.049,-1.804 0.744,-0.144 1.418,-0.28 2.019,-0.407 0.601,-0.13 1.273,-0.309 2.019,-0.538 0.802,-0.229 1.674,-0.452 2.619,-0.664 0.945,-0.217 1.897,-0.409 2.854,-0.581 0.962,-0.171 1.89,-0.314 2.794,-0.429 0.899,-0.115 1.725,-0.172 2.468,-0.172 0.917,0 1.61,0.294 2.084,0.879 0.47,0.589 0.707,1.411 0.707,2.471 0,0.544 -0.042,1.067 -0.128,1.566 -0.087,0.503 -0.243,0.953 -0.473,1.354 -0.229,0.401 -0.544,0.729 -0.945,0.987 -0.4,0.258 -0.915,0.416 -1.546,0.473 -1.631,0.229 -3.378,0.508 -5.238,0.838 -1.861,0.327 -3.479,0.694 -4.854,1.094 -0.572,0.173 -1.002,0.453 -1.288,0.838 -0.286,0.388 -0.473,0.866 -0.559,1.438 -0.085,0.544 -0.135,1.098 -0.151,1.653 -0.012,0.561 -0.021,1.096 -0.021,1.611 0,1.202 0.049,2.404 0.152,3.607 0.098,1.202 0.192,2.404 0.277,3.607 0.258,4.122 0.65,8.202 1.182,12.238 0.527,4.037 1.109,8.117 1.738,12.239 0.058,0.143 0.087,0.286 0.087,0.431 0,0.143 0,0.286 0,0.429 0,1.574 -0.888,2.691 -2.663,3.35 l -1.933,0.602 c -0.515,0.171 -1.016,0.258 -1.503,0.258 -0.744,0 -1.346,-0.237 -1.804,-0.708 -0.458,-0.475 -0.759,-1.168 -0.902,-2.084 -0.802,-4.924 -1.502,-9.825 -2.104,-14.709 -0.602,-4.88 -0.988,-9.798 -1.159,-14.751 -0.059,-0.802 -0.101,-1.675 -0.13,-2.62 -0.028,-0.943 -0.042,-1.917 -0.042,-2.92 0.002,-1.4 -0.585,-2.101 -1.759,-2.101 z"
   id="path20"
   style="fill:#ffffff;fill-opacity:1" />
	<path
   fill="#FFFFFF"
   d="m 501.537,184.546 c 0,1.718 0.423,3.313 1.266,4.79 0.847,1.472 1.954,2.76 3.328,3.864 1.375,1.101 2.949,1.959 4.725,2.576 1.775,0.614 3.593,0.923 5.454,0.923 0.572,0 1.159,-0.051 1.761,-0.149 0.601,-0.103 1.145,-0.28 1.632,-0.538 0.486,-0.258 0.888,-0.595 1.202,-1.008 0.315,-0.417 0.473,-0.938 0.473,-1.569 0,-1.201 -0.424,-2.39 -1.266,-3.563 -0.848,-1.174 -1.955,-2.34 -3.329,-3.501 -1.375,-1.157 -2.949,-2.319 -4.724,-3.477 -1.775,-1.161 -3.579,-2.313 -5.412,-3.458 -1.832,-1.145 -3.636,-2.297 -5.41,-3.458 -1.775,-1.157 -3.351,-2.318 -4.725,-3.477 -1.374,-1.161 -2.481,-2.335 -3.329,-3.521 -0.843,-1.191 -1.266,-2.386 -1.266,-3.587 0,-1.146 0.292,-2.214 0.882,-3.199 0.584,-0.99 1.365,-1.883 2.339,-2.685 0.974,-0.802 2.104,-1.518 3.393,-2.148 1.288,-0.629 2.634,-1.158 4.037,-1.589 1.402,-0.429 2.813,-0.752 4.23,-0.964 1.416,-0.217 2.77,-0.324 4.058,-0.324 0.944,0 1.981,0.021 3.112,0.066 1.131,0.041 2.191,0.171 3.178,0.384 0.99,0.217 1.812,0.538 2.471,0.968 0.658,0.429 0.988,1.045 0.988,1.847 0,0.257 -0.044,0.58 -0.13,0.965 -0.085,0.389 -0.329,1.024 -0.73,1.912 -0.399,0.83 -0.866,1.454 -1.396,1.866 -0.53,0.418 -1.209,0.625 -2.039,0.625 -1.175,0 -2.413,-0.138 -3.716,-0.407 -1.304,-0.274 -2.612,-0.409 -3.929,-0.409 -0.715,0 -1.438,0.037 -2.17,0.106 -0.728,0.073 -1.395,0.2 -1.996,0.389 -0.601,0.184 -1.087,0.457 -1.46,0.813 -0.372,0.36 -0.559,0.811 -0.559,1.354 0,0.544 0.396,1.159 1.181,1.847 0.787,0.688 1.832,1.446 3.137,2.276 1.301,0.83 2.783,1.738 4.443,2.729 1.661,0.984 3.356,2.044 5.091,3.178 1.73,1.128 3.427,2.331 5.088,3.607 1.66,1.271 3.141,2.617 4.445,4.037 1.301,1.414 2.346,2.911 3.133,4.486 0.787,1.574 1.183,3.206 1.183,4.896 0,2.062 -0.473,3.879 -1.418,5.454 -0.944,1.574 -2.161,2.891 -3.65,3.95 -1.488,1.059 -3.135,1.855 -4.938,2.383 -1.804,0.532 -3.565,0.796 -5.283,0.796 -1.745,0 -3.515,-0.207 -5.304,-0.625 -1.79,-0.412 -3.514,-1.002 -5.174,-1.759 -1.661,-0.76 -3.216,-1.676 -4.658,-2.747 -1.448,-1.076 -2.7,-2.278 -3.76,-3.607 -1.059,-1.333 -1.897,-2.771 -2.511,-4.317 -0.617,-1.546 -0.924,-3.163 -0.924,-4.853 0,-0.717 0.049,-1.439 0.15,-2.168 0.099,-0.732 0.279,-1.374 0.536,-1.935 0.259,-0.557 0.616,-1.015 1.074,-1.374 0.457,-0.355 1.045,-0.536 1.761,-0.536 0.229,0 0.486,0.021 0.771,0.065 0.288,0.041 0.789,0.179 1.504,0.407 0.831,0.258 1.568,0.664 2.211,1.225 0.646,0.556 0.969,1.28 0.969,2.168 z"
   id="path22"
   style="fill:#ffffff;fill-opacity:1" />
</g>
<path
   fill="#FFFFFF"
   d="M 91.570973,87.383285 19.525798,100.82854 4.9060833,22.483018 76.951259,9.0389165 Z M 70.32732,17.200505 14.028706,27.706435 23.285574,77.312254 79.583614,66.805753 Z"
   id="path26"
   style="fill:#ffffff;fill-opacity:1;stroke-width:0.573749" />
<path
   fill="#FFFFFF"
   d="m 184.7472,96.18205 -73.24373,2.561791 -2.78556,-79.647931 73.24488,-2.561792 z m -10.55125,-72.56442 -57.23554,2.002387 1.76427,50.430878 57.23498,-2.00124 z"
   id="path28"
   style="fill:#ffffff;fill-opacity:1;stroke-width:0.573749" />
<path
   fill="#FFFFFF"
   d="m 277.64243,92.956995 -72.87136,-7.811601 8.49436,-79.2422828 72.87194,7.8104538 z m -0.19507,-73.328071 -56.94351,-6.10355 -5.37833,50.174403 56.94351,6.103556 z"
   id="path30"
   style="fill:#ffffff;fill-opacity:1;stroke-width:0.573749" />
</svg>
