<svg id="svg2" xmlns="http://www.w3.org/2000/svg" width="547.98" height="113.03" viewBox="0 0 547.98 113.03">
  <path id="path2998" d="M165.88,28.92V86.46H176V35.1h6.19c4.46,0,6.47.12,7.23.43a7.63,7.63,0,0,1,3.67,4.52,27.7,27.7,0,0,1,.7,5.83c.2,5.16-.4,8.36-2,10.44s-2.65,2.51-7.29,2.51h-4v6.24l6.26-.12,6.26-.12,2.21-1c4-1.9,7-5.81,8.17-10.84a37,37,0,0,0,0-12.1,18.53,18.53,0,0,0-3.51-7.57,14.63,14.63,0,0,0-2.71-2.35c-2.93-1.88-4.06-2-18.35-2Zm44.54,0V86.46H220.5V28.92H210.42Zm126.37,0c-4.51,0-9.16.16-10.32.34a16,16,0,0,0-7.42,3.38,15.38,15.38,0,0,0-4,6.44,18.1,18.1,0,0,0-.68,5.93c0,4.1.32,5.85,1.73,8.61a16.22,16.22,0,0,0,5,5.37c1.95,1.13,4.44,1.72,8.72,2.07,3.26.26,4,.42,5.08,1.13a6.62,6.62,0,0,1,2.19,2.71c.87,1.77.92,2.14.91,5.95s-.06,4.18-.89,5.77a7.13,7.13,0,0,1-2.25,2.6l-1.35.9-8.56.1-8.56.09v6.15h9.73a104.43,104.43,0,0,0,11.46-.37,12.56,12.56,0,0,0,8.91-6.94c1.36-3,1.84-6,1.66-10.57-.19-4.82-.9-7.44-2.83-10.32-2.39-3.58-5.06-4.8-11.85-5.43a31.82,31.82,0,0,1-5.72-.9,6.44,6.44,0,0,1-3.28-3.74,20.47,20.47,0,0,1,0-8.36,6.68,6.68,0,0,1,4.13-4.34c.89-.26,3.86-.39,8.85-.39H345V28.92Zm115.81,0v8.45h10.07V28.92H452.6Zm-96.9,6.5.1,20.72c.09,20.4.1,20.76.8,22.61a17.51,17.51,0,0,0,1.86,3.44,10.41,10.41,0,0,0,5.1,3.74c1,.36,2.76.5,6.06.51l4.64,0V80.28h-3c-2.88,0-3.07,0-3.89-.89a5.71,5.71,0,0,1-1.21-2.52c-.22-1-.31-6.41-.25-14.79L366,48.91l5.44-.09,5.45-.09V42.57H365.81V35.42H355.7Zm69.59,0V55.89c0,19.8,0,20.54.67,22.51a12.93,12.93,0,0,0,4.05,6,12,12,0,0,0,2.86,1.49c1.29.44,2.73.58,6.15.59h4.47V80.28h-2.88c-2.41,0-3-.1-3.73-.66a4.23,4.23,0,0,1-1.18-1.87c-.2-.74-.33-6.58-.33-15.11V48.75h11.07l-.09-3-.09-3-5.45-.09-5.44-.09V35.42H425.29Zm-8.89,7.07-10.76.17c-11.56.18-12.76.32-16.16,2-3.8,1.93-6.44,5.67-7.65,10.79-.5,2.14-.59,4-.59,12.11,0,9.23,0,9.66.75,11.43,1.44,3.56,3.58,5.76,6.67,6.83,1.36.47,2.78.58,7.46.58l5.77,0V80.28h-4c-3.83,0-4.09,0-5-.81a4.47,4.47,0,0,1-1.32-2.26c-.46-1.79-.48-15.94,0-19.36.63-4.87,1.72-7.15,4-8.37.79-.42,2.15-.57,6-.67l5-.13V86.46h10.4V74.32c0-6.68-.1-16.57-.22-22Zm-152.67,0-10.81.16c-11.74.18-13.43.4-16.64,2.11-3.72,2-6.38,5.94-7.51,11.13-.71,3.29-1,16.79-.49,20.05a14.51,14.51,0,0,0,3.4,7.33,12.46,12.46,0,0,0,4.74,2.87,56.64,56.64,0,0,0,6.75.27l5.93,0V80.28H245c-4.69,0-5.31-.22-6.19-2.24-.39-.89-.55-2.66-.65-7.41-.15-6.76.32-14.09,1.06-16.52a7.27,7.27,0,0,1,3.32-4.57c1-.52,2-.61,6.12-.62h4.88l.08,18.77.08,18.77h10.08V42.5Zm10.85.07c-2.93,0-5.32,0-5.31.08s3.34,9.86,7.42,21.81l7.42,21.74L279.93,97c-2.29,5.93-4.17,10.82-4.17,10.87s2,0,4.43,0l4.43-.09,12.95-32.51c7.12-17.88,13-32.54,13-32.59s-2.1-.08-4.68-.08c-3.41,0-4.77.11-5,.41s-2.63,6.54-5.52,14.05-5.4,13.69-5.57,13.74-2.47-6.26-5.11-14l-4.8-14.15Zm178,0V86.46h10.07V42.57H452.6Zm60.95.16-.1,21.86h0l-.1,21.87h10.42V48.68l5,.13c5.27.14,6.14.35,7.62,1.94,1.16,1.24,2,3.5,2.36,6.44.19,1.54.35,8.6.35,16V86.46h10.07V73.53c0-13.7-.24-17-1.56-20.67-1.8-5-5.11-8-10.49-9.51-1.77-.48-3.68-.56-12.81-.59l-10.72,0Zm-25.48.1a25.22,25.22,0,0,0-7.71,1.05,13.22,13.22,0,0,0-6.12,3.92,18.41,18.41,0,0,0-4,8.26c-.48,2.09-.59,3.85-.56,8.94,0,5.36.13,6.73.71,8.85a17.09,17.09,0,0,0,4.2,8A16.31,16.31,0,0,0,482.55,86a27.38,27.38,0,0,0,6.46.34c5.24-.14,7.73-.81,10.79-2.9a14.84,14.84,0,0,0,5.59-8c1.57-5,1.85-13.15.64-19.2a19.88,19.88,0,0,0-3.59-8,14.81,14.81,0,0,0-6.55-4.29,26.34,26.34,0,0,0-7.82-1.05Zm.12,6.05a9.3,9.3,0,0,1,4.12.87c1.51.77,2.46,2.11,3.29,4.63.54,1.66.67,3.16.8,8.63.17,7.14-.16,10.5-1.27,13a7.15,7.15,0,0,1-3.43,3.78,12.21,12.21,0,0,1-3.61.45,7.27,7.27,0,0,1-4-.75,6.5,6.5,0,0,1-2.34-2.21c-1.47-2.37-1.95-5.48-2-12.48,0-6.67.33-9.35,1.56-12.06a7.56,7.56,0,0,1,1.88-2.52,8.52,8.52,0,0,1,5-1.38Z" transform="translate(-1.16 0)" style="fill: #fff"/>
  <path id="path7" d="M80.52,22.07l-.1,91-24-6.8V0L87.05,8.1c20.77,5.82,32,16.23,31.83,34.17C120,65.8,104.58,70.72,90.61,64.13l-.33-38.49c-.17-6.81-8.73-9.89-9.76-2.91Z" transform="translate(-1.16 0)" style="fill: #fff"/>
  <path d="M26.66,86.82c-9.79,3.39,2.44,7.79,14.23,3.5l10.82-3.56V98.54c-3.78.92-9.21,1.39-20.63.84C19.44,98.83,1.16,94.21,1.16,87.66c0-5.29,11.74-9.76,12.63-10.06L51.71,64.88V78.44S38.48,82.72,26.66,86.82Z" transform="translate(-1.16 0)" style="fill: #fff"/>
  <path d="M85.12,77.43V88.91l27.43-9.09c8.07-2.22,13-.34,14.39,1,0,0,2.24,1.82-6.93,4.61L85.12,98.05v13.41l48.79-17.12c12.07-4.52,14.56-7.89,14.4-10.92-.39-7.18-17.8-11.55-29.47-12.47a87,87,0,0,0-33.72,4.42v2.06" transform="translate(-1.16 0)" style="fill: #fff"/>
</svg>
